Patient4_TMGait_0pt7_01_right_31_EMG.mot
version=1
nRows=41
nColumns=33
inDegrees=no
endheader
time	1LAddLong	2LGlutMax	3LGlutMed	4LIliopsoas	5LSemiMemb	6LBicFemLong	7LRecFem	8LVastMed	9LVastLat	10LGasMed	11LTibAnt	12lTibPost	13LPeroneusLong	14LSol	15LExtDigLong	16LFlexDigLong	17RAddLong	18RGlutMax	19RGlutMed	20RIliopsoas	21RSemiMemb	22RBicFemLong	23RRecFem	24RVastMed	25RVastLat	26RGasMed	27RTibAnt	28RTibPost	29RPeroneusLong	30RSol	31RExtDigLong	32RFlexDigLong
35.625	0.012054	-0.62607	0.063629	-0.011444	0.018158	-0.067902	-0.20554	-0.000916	0.059357	0.027466	0.039825	-0.26703	-0.027466	-0.000763	-0.12131	-0.031433	0.07019	-0.22675	-0.49637	0.039063	-0.83069	-0.21042	0.9201	0.32318	0.064087	0.011292	-0.16373	-0.045624	-0.66269	-1.4987	-0.003052	-0.033569
35.626	-0.007629	-0.48462	0.069275	-0.024872	0.019989	-0.052643	-0.25864	0.003204	0.06424	0.012054	-0.035858	0.069427	-0.070801	0.054474	0.13657	-0.015869	-0.087738	-0.090332	-0.11917	0.08606	0.495	-0.1712	0.84915	0.64712	0.12665	0.024261	-0.1503	0.026855	-0.33615	-1.765	-0.001678	-0.028229
35.627	0.001678	-0.31677	0.10483	-0.021057	0.010986	-0.05249	-0.22354	0.005493	0.063934	0.002594	-0.12405	0.048523	-0.095367	0.13519	-0.010376	-0.022583	-0.25482	0.10162	-0.27878	-0.096436	0.68542	-0.080719	0.54489	0.69275	0.11383	0.044708	-0.23865	0.011292	0.3244	-1.2566	-0.003052	-0.019379
35.628	-0.000153	-0.21149	0.065613	0.007935	0.02594	-0.044861	-0.11948	0.00885	0.061035	0.013123	-0.087738	0.00885	-0.084686	0.20569	0.009766	-0.029144	-0.2269	0.12085	-0.59036	-0.11093	0.28015	-0.19882	0.027161	0.44601	0.28122	-0.058594	-0.20081	-0.011139	0.27741	-0.52856	-0.00473	-0.025787
35.629	-0.016327	-0.1535	0.053558	0.037384	0.018463	-0.033875	-0.068817	0.008392	0.062103	-0.010223	-0.062408	0.005798	-0.037537	0.24506	0.11948	-0.039063	-0.19104	0.05188	-0.48325	-0.054932	0.4303	-0.18723	-0.19714	0.24399	0.30609	-0.044556	-0.009613	-0.033875	-0.15656	0.019989	-0.002289	-0.02533
35.63	0.001526	-0.02243	0.093231	0.02182	0.006714	-0.031128	0.001678	0.000763	0.058594	-0.00061	0.16464	0.011444	-0.007629	0.21713	-0.061951	-0.049286	-0.14465	-0.12573	-0.65903	-0.22476	0.34851	-0.1535	-0.046082	0.085297	0.40634	-0.073547	0.1152	-0.14694	-0.60715	-0.13779	-0.001678	-0.029297
35.631	-0.009766	0.074463	0.020142	-0.004425	0.013123	-0.037537	0.066071	0.008545	0.056763	0.0354	0.20462	0.008545	-0.070801	0.1178	0.73639	-0.044708	-0.10422	-0.28595	-0.38528	-0.29526	0.18509	-0.018311	0.16785	-0.004272	0.42511	-0.06897	0.072632	-0.13504	-0.42145	-0.65033	-0.000916	-0.014648
35.632	0.005798	0.13748	0.030975	-0.020142	0.014801	-0.055389	0.1149	0.015869	0.058136	0.053864	-0.16357	0.007172	-0.092621	0.082855	-0.62775	-0.047302	-0.081482	-0.40009	-0.4158	-0.26657	0.12146	0.1889	0.40207	0.073242	0.35263	-0.054779	0.14313	0.04776	-0.22079	0.92133	0	-0.002747
35.633	0.002289	0.1358	0.03952	0.018768	0.016327	-0.037994	0.20142	0.014954	0.064392	0.070496	-0.049286	0.008698	-0.14038	-0.009308	-0.4567	-0.046539	-0.050659	-0.42862	-0.43549	-0.000916	0.10056	-0.014191	0.46432	0.15808	0.019379	-0.10208	0.14511	0.036621	-0.066681	1.4149	-0.002594	0.00473
35.634	-0.009155	0.12482	0.019531	0.01236	0.008698	-0.037231	0.29862	0.015869	0.055847	0.1059	0.18097	0.001984	-0.22461	-0.1268	-0.36346	-0.037231	-0.019684	-0.40207	-0.43823	0.36514	0.029907	-0.10788	0.58487	0.12985	-0.5069	-0.096741	0.11841	-0.13519	-0.22522	1.1192	-0.003052	0.006866
35.635	-0.001221	0.15717	0.064545	-0.009308	0.013123	-0.052185	0.32989	0.014954	0.056763	0.093994	0.069275	0.006561	-0.15121	-0.036163	0.035248	-0.046539	0.001984	-0.43015	-0.44632	0.55588	-0.024414	-0.19272	0.55618	0.10941	-0.79269	0.046692	0.11169	-0.080872	0.13458	0.85693	-0.002899	0.001221
35.636	-0.010681	0.15915	0.058136	-0.029297	0.020752	-0.042419	0.28122	0.019531	0.043793	0.061646	-0.14297	0.005646	-0.044403	0.11658	0.18173	-0.024719	0.011597	-0.45319	-0.45609	0.5072	-0.044861	-0.27329	0.53177	0.10422	-0.5722	0.002136	-0.029297	0.09079	0.39841	0.40939	-0.004883	-0.004883
35.637	-0.004883	0.22385	0.019226	-0.014343	0.008698	-0.041809	0.26779	0.018616	0.045319	0.02594	-0.22614	0.005188	0.045624	0.18631	0.17059	-0.029449	0.012512	-0.58746	-0.63644	0.34058	-0.038452	-0.32471	0.46768	0.064392	-0.36224	-0.026398	-0.10895	0.012207	0.30777	0.22797	-0.005341	-0.009308
35.638	-0.011902	0.23911	0.014648	0.000305	0.016327	-0.032196	0.30838	0.019531	0.040894	0.015717	-0.009308	0.001221	-0.052948	0.14114	0.074768	-0.036774	0.018921	-0.64468	-0.64957	0.22553	-0.011902	-0.088043	0.42923	0.09964	-0.1831	-0.01297	-0.31784	-0.15106	0.15717	0.99625	-0.001373	-0.002899
35.639	-0.006256	0.29022	0.015259	0.051727	0.016022	-0.030212	0.37445	0.021973	0.04364	0.025177	0.093231	0.002899	-0.084991	0.073242	0.03067	-0.039215	0.021667	-0.63263	-0.97626	0.14465	0.011597	0.02182	0.28275	0.097198	-0.10437	0.023651	-0.43518	0.11643	0.13748	1.2451	-0.003662	0.001678
35.64	-0.014954	0.40482	-0.026855	0.066376	0.003357	-0.036011	0.41138	0.016785	0.028992	0.037537	0.18265	-0.000763	-0.091248	0.048981	-0.27557	-0.040741	0.049133	-0.65872	-1.3176	0.032349	-0.20157	-0.076447	0.36148	0.027924	-0.083923	0.046082	-0.28976	0.20218	0.20767	0.84747	-0.002289	0.005493
35.641	-0.016785	0.54962	-0.036469	0.048981	0.010681	-0.02533	0.35889	0.01236	0.022125	0.059357	0.11353	-0.004425	-0.080872	-0.032043	0.21194	-0.044556	0.065002	-0.6366	-0.95093	-0.00473	-0.15198	-0.3305	0.26215	0.029144	-0.055237	0.013123	0.000916	-0.003052	0.16556	0.11688	0.000458	0.000458
35.642	-0.014954	0.71304	-0.042267	0.033875	0.011902	-0.030365	0.34637	0.01297	0.012054	0.058899	-0.032349	0.028381	-0.025482	0.022125	0.36362	-0.028076	0.064392	-0.6337	-0.30289	-0.13123	-0.15945	-0.43304	0.16785	-0.030823	-0.037079	-0.045471	0.51132	0.10971	0.09079	0.25986	-0.001373	-0.000305
35.643	-0.006104	0.86594	-0.039673	-0.001373	0.005493	-0.024261	0.38132	0.022888	0.02121	0.023804	-0.33768	0.001373	0.078278	0.10452	0.19104	-0.027008	0.030975	-0.64987	-0.40741	-0.12695	0.081635	-0.42801	-0.014191	-0.057983	0.010529	-0.11307	0.78705	0.15533	-0.18173	0.015411	-0.002289	0.00061
35.644	0.00412	0.97427	-0.048828	0.010529	0.0177	-0.015411	0.3096	0.021515	0.024719	0.018921	-0.2301	-0.005188	0.036011	0.17899	-0.22339	-0.021667	0.016632	-0.57159	-0.27023	-0.19898	0.1799	-0.40359	-0.022888	-0.049438	0.021057	-0.17151	0.81497	0.064697	-0.46005	-0.33432	0.001221	-0.005188
35.645	-0.004578	1.0863	-0.029449	-0.000305	0.00351	-0.015411	0.20859	0.023499	0.013885	0.041809	-0.075989	0.005646	-0.061798	0.18494	-0.33798	-0.03006	0.021667	-0.67795	0.68619	-0.25864	-0.036316	-0.37964	0.079498	-0.18784	-0.019684	-0.099487	0.094147	-0.22781	-0.47562	-0.40802	-0.001984	0.009918
35.646	-0.004425	1.1595	0.014954	-0.011292	0.000763	-0.019226	0.18494	0.019531	0.022888	0.035248	-0.090485	-0.006104	-0.081787	0.21362	-0.099792	-0.018921	0.007629	-0.86777	1.6939	-0.19043	-0.057678	-0.15121	0.084991	-0.11871	-0.018158	-0.015869	-0.061951	-0.29007	-0.078735	-0.047913	-0.001221	0.002747
35.647	-0.001221	1.2642	0.039978	-0.013885	0.01709	-0.027008	0.13977	0.024109	0.013275	0.02655	-0.084991	0.006714	-0.062714	0.20325	0.10071	-0.009308	-0.00351	-1.0748	1.2151	-0.20798	-0.13825	-0.065765	0.1622	0.098572	-0.031433	0.048065	0.29022	0.17273	0.28976	0.29984	-0.004578	0.005188
35.648	0.005188	1.2582	-0.060577	-0.018158	-0.001984	-0.03006	0.081787	0.019531	-0.005798	0.058899	0.05661	0.001068	-0.15015	0.060883	-0.012512	-0.018921	0.000916	-1.3983	0.02182	-0.042572	-0.22949	-0.1152	0.36621	-0.067902	-0.002136	-0.00061	0.80093	-0.13092	0.14877	0.09613	-0.00412	0.006561
35.649	0.010834	1.2587	-0.13107	-0.025177	0.005798	-0.000153	-0.032043	0.023651	-0.00061	0.057983	-0.024109	-0.000916	-0.078735	-0.021515	-0.26581	-0.007019	0.00061	-1.6074	-1.3094	0.1181	-0.014038	-0.14664	0.1767	-0.1091	0.32928	-0.083771	1.0709	0.069733	-0.084381	-0.47409	-0.003967	-0.008087
35.65	0.007629	1.4006	-0.11063	-0.005341	0.00412	-0.006561	-0.11093	0.015564	0.010834	0.064697	0.10361	0.006256	-0.068817	-0.077515	-0.23636	-0.011444	-0.031738	-1.7407	-1.0977	0.21637	0.24155	0.006866	0.26367	-0.09201	0.50736	-0.042877	0.68359	0.055389	-0.27679	-0.90027	-0.000916	-0.012207
35.651	0.009155	1.382	-0.1149	-0.005646	-0.002594	0.012054	-0.15533	0.015411	0.029144	0.061646	0.19867	-0.008392	-0.081024	-0.099335	-0.009003	0.013123	-0.003357	-1.514	0.09903	0.10346	0.22156	0.34347	0.15671	-0.009613	0.41824	-0.024414	0.30838	0.053253	-0.1033	-0.9877	0.000305	0.000153
35.652	0.020447	1.3589	-0.1059	-0.000305	0.001526	-0.023499	-0.14374	0.009308	0.031281	0.059357	0.12497	-0.000458	-0.03891	-0.072021	0.13504	0.015106	-0.009308	-1.3852	0.55405	0.009766	0.0177	0.62744	-0.17838	-0.012665	0.40848	0.089722	0.77637	0.028381	0.13657	-0.95261	-0.002747	0.005341
35.653	-0.068665	1.2575	-0.11063	0.000153	-0.001373	0.003357	-0.13596	-0.001373	0.039368	0.054779	0.14923	0.014496	-0.046997	0.015717	0.041351	0.009308	-0.040283	-1.3713	0.003815	0.052032	-0.12512	0.72174	-0.54291	0.027771	0.48325	0.18616	-0.38483	-0.018921	0.057831	-1.1592	0	0.00946
35.654	-0.037994	1.2569	-0.13626	-0.008545	0.009918	0.002136	-0.08316	-0.005951	0.044708	0.045929	0.19791	0.005951	-0.050354	0.046997	0.12863	0.010223	-0.017395	-1.2422	0.22171	0.088959	-0.1236	0.69488	-0.70252	0.16907	0.47577	0.11704	-1.7395	-0.022736	0.11826	-1.1697	0	0.010681
35.655	-0.003815	1.216	-0.168	-0.005341	0.007629	-0.009155	-0.085144	-0.011902	0.055084	0.041656	-0.056	0.000458	-0.050049	0.080566	0.19592	0.010834	0.058136	-0.86762	-0.15991	0.096893	-0.26581	0.44678	-0.48355	0.09613	0.37201	0.063477	-1.5802	-0.028076	0.003815	-0.32669	-0.003815	0.010223
35.656	0.015564	1.1719	-0.14435	-0.003967	0.001068	-0.00412	-0.036621	-0.010834	0.057068	0.043182	-0.2179	0.003204	-0.0177	0.11017	0.21088	-0.000153	0.10864	-0.72922	0.16754	-0.019836	-0.3122	0.20157	-0.14999	-0.071106	-0.27115	0.047302	-1.2662	-0.031586	0.19623	0.27359	-0.003357	0.010376
35.657	0.006104	1.1511	-0.03891	-0.010223	0.014343	-0.004425	-0.063934	-0.019531	0.065002	0.053406	-0.11353	0.007782	-0.023651	0.063629	0.13825	0.007782	0.035706	-0.63828	0.60516	-0.097351	-0.1062	0.091248	0.02594	-0.059509	-0.64438	0.040436	-0.88501	-0.048676	0.20523	0.69275	-0.001831	0.003662
35.658	0.001526	1.1551	-0.10849	-0.047302	0.00473	-0.003967	0.020599	-0.00351	0.056915	0.03418	0.081024	-0.002289	-0.057068	0.058746	0.28244	0.006256	-0.02655	-0.5693	0.29831	-0.10452	-0.011902	0.079041	-0.055389	0.16571	-0.59357	0.048523	-0.39047	-0.035553	0.18005	1.0861	-0.001221	0.005341
35.659	0.009613	1.0982	-0.11765	-0.037537	0.005646	-0.011292	0.012054	0.013275	0.053101	0.021362	0.10712	0.007172	-0.055542	0.036011	0.73349	0.007324	-0.047302	-0.50003	0.25589	-0.0383	0.006104	0.063019	-0.090637	0.26916	-0.61829	0.0383	-0.015106	0.030823	0.11398	0.79697	-0.002594	-0.015106
35.66	0.00412	1.1159	-0.05127	-0.021667	0.007324	0.002136	-0.002289	0.010834	0.054932	0.007935	0.079803	-0.002441	-0.015869	0.053711	-0.45227	0.003967	-0.035858	-0.50323	0.56412	-0.019836	0.26093	-0.098572	-0.16403	0.28732	-0.45456	0.036316	0.20294	-0.015717	0.16419	-0.027161	-0.007324	-0.017395
35.661	0.005035	1.1612	-0.012207	0.021362	-0.002136	0.008545	0.1059	0.019073	0.059357	0.013733	-0.085907	-0.001678	0.000458	0.065613	-0.31509	-0.002289	-0.015564	-0.36392	0.42816	-0.03479	0.1831	-0.21194	-0.09552	0.14297	-0.41107	-0.00824	0.37201	-0.024567	0.29526	-0.112	0.000458	-0.012207
35.662	0.005035	1.1954	-0.029144	0.021973	0.013885	-0.013885	0.13062	0.019226	0.088806	0.059509	-0.074005	0.006714	0.014954	0.061188	0.20538	-0.01236	0.00946	-0.39551	0.24124	-0.044861	0.018921	-0.2063	-0.086212	0.080414	-0.21698	-0.008545	0.10208	-0.003662	0.37872	0.55679	-0.002441	-0.007935
35.663	0.013123	1.2091	-0.090637	0.011597	0.015717	0.004272	0.066681	0.022888	0.080109	0.057983	0.11169	0.009766	-0.072021	0.10864	-0.25696	-0.02655	-0.022583	-0.38864	0.25955	-0.039063	0.1059	-0.15457	-0.053406	0.053711	-0.13886	0.007477	-0.27679	-0.00824	0.28076	0.76813	-0.000916	-0.012512
35.664	0.011139	1.2114	-0.13687	-0.006866	-0.004883	0.016937	0.010223	0.019836	0.061035	0.06012	0.1207	0.005493	-0.11368	0.19165	-0.18585	-0.033569	-0.080719	-0.33722	0.23377	-0.03952	0.30045	-0.041962	-0.017395	0.039825	-0.10346	0.001678	-0.24719	-0.017548	0.26794	1.051	-0.001373	-0.00351
35.665	0.008698	1.1743	-0.18417	-0.032959	0.011902	0.011749	0.023499	0.02121	0.05127	0.008545	0.1947	0.006714	-0.07309	0.17151	-0.17654	-0.013123	-0.059814	-0.28137	0.1535	-0.006866	0.090942	0.028992	-0.033417	0.063019	-0.074921	0.018005	-0.25879	-0.018311	0.29709	1.1865	0.001068	0.009155
